<?xml version="1.0" standalone="no"?>
<!DOCTYPE svg PUBLIC "-//W3C//DTD SVG 20010904//EN"
 "http://www.w3.org/TR/2001/REC-SVG-20010904/DTD/svg10.dtd">
<svg version="1.0" xmlns="http://www.w3.org/2000/svg"
 width="1920.000000pt" height="1080.000000pt" viewBox="0 0 1920.000000 1080.000000"
 preserveAspectRatio="xMidYMid meet">

<g transform="translate(0.000000,1080.000000) scale(0.100000,-0.100000)"
fill="#000000" stroke="none">
<path d="M3602 8478 c-19 -24 -154 -205 -302 -403 -148 -198 -294 -394 -325
-435 -31 -41 -97 -129 -146 -195 -50 -66 -95 -127 -102 -135 -35 -44 -67 -89
-67 -94 0 -3 184 -6 408 -6 l409 0 248 -332 c136 -183 251 -337 255 -341 4 -5
134 161 290 368 155 208 286 373 290 369 11 -12 548 -734 607 -816 26 -37 143
-194 258 -349 l210 -281 925 7 c509 4 926 8 927 9 1 1 -112 154 -252 339 -139
186 -256 346 -259 355 -3 9 -16 31 -28 47 -325 435 -446 595 -468 615 -15 14
-243 313 -506 665 -263 352 -483 643 -489 647 -5 4 -424 8 -930 8 l-920 0 -33
-42z"/>
<path d="M7945 6907 c-122 -32 -206 -92 -253 -181 -23 -44 -27 -63 -27 -136 0
-68 5 -93 22 -125 51 -95 126 -137 349 -196 236 -62 287 -94 287 -178 0 -164
-316 -198 -560 -61 -29 17 -54 30 -56 30 -3 0 -19 -34 -38 -76 -37 -87 -40
-82 53 -130 85 -43 184 -65 318 -71 187 -8 311 28 398 115 56 56 76 105 80
195 5 100 -13 151 -74 207 -61 56 -120 81 -304 130 -85 22 -175 51 -200 63
-122 62 -95 208 47 248 102 29 266 8 374 -46 28 -15 52 -25 54 -23 2 2 17 37
33 78 l30 75 -27 18 c-14 9 -62 29 -106 43 -67 22 -103 27 -215 30 -89 2 -152
-1 -185 -9z"/>
<path d="M14431 6900 c-185 -50 -329 -182 -392 -360 -20 -56 -23 -84 -23 -195
0 -114 3 -138 25 -195 63 -164 176 -274 348 -338 91 -33 257 -42 364 -18 95
21 183 65 244 121 l48 44 -60 60 c-33 34 -63 61 -68 61 -5 0 -25 -14 -44 -30
-158 -139 -417 -123 -562 35 -70 78 -94 145 -94 265 0 120 24 187 94 265 145
158 419 174 566 33 l31 -30 29 20 c15 11 46 39 67 61 l40 41 -29 30 c-42 44
-116 89 -193 118 -95 35 -284 41 -391 12z"/>
<path d="M10500 6349 l0 -561 348 5 c359 5 411 10 494 53 93 48 148 139 148
245 0 118 -44 199 -137 251 l-54 30 42 36 c60 52 89 119 89 210 0 161 -102
256 -304 282 -39 5 -196 10 -348 10 l-278 0 0 -561z m648 373 c61 -32 84 -74
79 -140 -4 -61 -29 -94 -92 -123 -34 -16 -67 -19 -232 -19 l-193 0 0 156 0
156 198 -4 c182 -3 200 -5 240 -26z m49 -469 c51 -27 80 -64 89 -110 16 -84
-43 -162 -136 -182 -28 -6 -139 -11 -245 -11 l-195 0 0 166 0 166 223 -4 c205
-3 225 -5 264 -25z"/>
<path d="M11896 6532 c-93 -207 -207 -459 -252 -560 l-83 -183 106 3 106 3 55
128 54 127 282 0 282 0 56 -127 55 -128 107 -3 c59 -1 106 1 103 5 -2 4 -116
257 -253 561 l-248 552 -101 0 -100 0 -169 -378z m378 -78 l104 -239 -104 -3
c-56 -1 -152 -1 -212 0 l-109 3 96 225 c53 124 100 234 104 244 4 10 10 17 12
14 3 -3 52 -112 109 -244z"/>
<path d="M12920 6351 l0 -561 100 0 100 0 0 165 0 166 152 -3 152 -3 114 -162
113 -163 109 0 110 0 -97 138 c-53 75 -111 158 -130 184 l-33 46 47 23 c131
63 203 201 190 365 -13 169 -117 290 -293 340 -47 13 -118 18 -346 21 l-288 5
0 -561z m526 378 c128 -22 196 -96 197 -214 1 -110 -51 -182 -158 -216 -25 -7
-101 -13 -200 -13 l-160 -1 -3 228 -2 227 131 0 c73 0 161 -5 195 -11z"/>
<path d="M15250 6350 l0 -560 100 0 100 0 0 240 0 240 295 0 295 0 0 -240 0
-240 100 0 100 0 0 560 0 560 -100 0 -100 0 -2 -232 -3 -233 -290 0 -290 0 -3
233 -2 232 -100 0 -100 0 0 -560z"/>
<path d="M16550 6350 l0 -560 415 0 415 0 0 85 0 85 -315 0 -315 0 0 160 0
160 270 0 270 0 0 80 0 80 -270 0 -270 0 0 150 0 150 305 0 305 0 0 85 0 85
-405 0 -405 0 0 -560z"/>
<path d="M17620 6351 l0 -561 100 0 100 0 0 165 0 166 152 -3 152 -3 114 -162
113 -163 109 0 110 0 -97 138 c-53 75 -111 158 -130 184 l-33 46 47 23 c131
63 203 201 190 365 -13 169 -117 290 -293 340 -47 13 -118 18 -346 21 l-288 5
0 -561z m526 378 c128 -22 196 -96 197 -214 1 -110 -51 -182 -158 -216 -25 -7
-101 -13 -200 -13 l-160 -1 -3 228 -2 227 131 0 c73 0 161 -5 195 -11z"/>
<path d="M8810 6830 l0 -30 374 0 c206 0 382 -3 391 -6 14 -6 16 -1 13 27 l-3
34 -387 3 -388 2 0 -30z"/>
<path d="M8860 6759 c0 -31 20 -258 26 -298 l6 -35 20 32 c11 18 24 32 29 32
15 0 29 -37 29 -75 0 -39 -2 -38 48 -18 19 8 14 -22 -8 -42 -20 -18 -20 -19
38 -79 102 -107 159 -211 169 -312 5 -47 9 -54 27 -54 49 0 64 11 75 55 7 27
22 53 41 69 31 26 90 43 109 31 6 -3 11 -2 11 3 0 17 69 635 76 675 l6 37
-351 0 c-350 0 -351 0 -351 -21z m419 -156 c38 -26 42 -31 36 -60 -5 -27 -3
-31 13 -26 14 3 23 -5 37 -33 34 -73 1 -153 -74 -174 -30 -8 -36 -7 -49 12
-14 20 -16 20 -28 3 -16 -22 -66 -22 -100 -1 -41 28 -59 65 -59 126 l0 55 40
-2 c38 -3 38 -2 18 12 -19 13 -21 19 -11 46 13 37 61 69 103 69 17 0 50 -12
74 -27z"/>
<path d="M9201 6557 c-7 -9 -16 -28 -20 -44 -5 -18 -14 -27 -24 -25 -14 2 -15
-1 -6 -24 8 -22 7 -29 -6 -36 -28 -16 -15 -28 30 -28 36 0 45 -3 45 -17 1 -13
5 -10 16 10 15 28 30 35 36 16 2 -6 12 -10 22 -8 16 4 15 7 -7 40 -18 27 -22
40 -14 48 8 8 2 11 -21 11 -29 0 -32 2 -23 19 7 13 6 23 -2 36 -12 15 -14 15
-26 2z"/>
<path d="M1995 6333 c-71 -95 -138 -184 -148 -196 -30 -37 -184 -243 -202
-271 l-17 -26 497 0 c450 0 497 1 491 16 -7 18 -472 640 -483 647 -5 3 -66
-74 -138 -170z"/>
<path d="M9395 5985 c-30 -30 -32 -64 -4 -99 42 -54 129 -19 129 51 0 22 -8
38 -26 52 -35 28 -69 26 -99 -4z"/>
</g>
</svg>
